<?xml version="1.0" encoding="utf-8"?>
<?xml-stylesheet type="text/xsl" href="rss1.xsl"?>
<rss version="2.0" xmlns:atom="http://www.w3.org/2005/Atom" xmlns:content="http://purl.org/rss/1.0/modules/content/" xmlns:dc="http://purl.org/dc/elements/1.1/" xmlns:media="http://search.yahoo.com/mrss/">
<channel>
 <title>Getty</title>
 <link>http://www.gettyimg.com/</link>
 <atom:link href="http://www.gettyimg.com/" rel="self" type="application/rss+xml" />

 
                <item>
                <title><![CDATA[【HD Live Performances】FEED - Ed Sheeran - Global Citizen Festival (2021) Paris 1080i BACKHAUL MPA2.0 H.264-TrollHD]]></title>
                <link><![CDATA[https://sharemania.us/threads/ed-sheeran-global-citizen-festival-2021-paris-1080i-backhaul-mpa2-0-h-264-trollhd.246590/]]></link>
                <description><![CDATA[<article>
<blockquote class="messageText SelectQuoteContainer ugc baseHtml">
<div style="padding-left: 30px"><div style="padding-left: 30px"><div style="padding-left: 30px"><b><span style="font-size: 22px"><span style="color: #ff4d4d">Ed Sheeran Global Citizen Festival (2021) Paris </span></span></b><br>
<div style="padding-left: 30px"><b><span style="font-size: 22px"><span style="color: #ff4d4d">1080i BACKHAUL MPA2.0 H.264-TrollHD</span></span></b>​</div></div></div></div><br>
<img src="https://images2.imgbox.com/5b/02/MSI5CcEV_o.png" class="bbCodeImage LbImage" alt="[​IMG]" data-url="https://images2.imgbox.com/5b/02/MSI5CcEV_o.png" style=""> <br>
<img src="https://images2.imgbox.com/00/e3/jY8SF1F6_o.jpg" class="bbCodeImage LbImage" alt="[​IMG]" data-url="https://images2.imgbox.com/00/e3/jY8SF1F6_o.jpg" style=""> <br>
<br>
<div class="bbCodeBlock bbCodeCode">
<div class="type">Code:</div>
<pre>General
Unique ID                      : 114795919906279070308790697270127433024 (0x565CE3D4AFE839855EA642DBE1E11540)
Format                         : Matroska
Format version                 : Version 4
File size                      : 3.58 GiB
Duration                       : 35 min 6 s
Overall bit rate mode          : Constant
Overall bit rate               : 14.6 Mb/s
Encoded date                   : UTC 2024-06-09 20:43:07
Writing application            : mkvmerge v83.0 ('Circle Of Friends') 64-bit
Writing library                : libebml v1.4.5 + libmatroska v1.7.1

Video
ID                             : 1
Format                         : AVC
Format/Info                    : Advanced Video Codec
Format profile                 : High@L4
Format settings                : CABAC / 3 Ref Frames
Format settings, CABAC         : Yes
Format settings, Reference fra : 3 frames
Format settings, GOP           : M=4, N=24
Codec ID                       : V_MPEG4/ISO/AVC
Duration                       : 35 min 6 s
Bit rate mode                  : Constant
Bit rate                       : 14.6 Mb/s
Width                          : 1 920 pixels
Height                         : 1 080 pixels
Display aspect ratio           : 16:9
Frame rate mode                : Variable
Frame rate                     : 41.685 FPS
Original frame rate            : 25.000 FPS
Color space                    : YUV
Chroma subsampling             : 4:2:0
Bit depth                      : 8 bits
Scan type                      : MBAFF
Scan type, store method        : Interleaved fields
Scan order                     : Top Field First
Bits/(Pixel*Frame)             : 0.169
Stream size                    : 3.49 GiB (97%)
Language                       : English
Default                        : Yes
Forced                         : No
Color range                    : Limited
Color primaries                : BT.709
Transfer characteristics       : BT.709
Matrix coefficients            : BT.709

Audio
ID                             : 2
Format                         : MPEG Audio
Format version                 : Version 1
Format profile                 : Layer 2
Codec ID                       : A_MPEG/L2
Codec ID/Hint                  : MP2
Duration                       : 35 min 6 s
Bit rate mode                  : Constant
Bit rate                       : 384 kb/s
Channel(s)                     : 2 channels
Sampling rate                  : 48.0 kHz
Frame rate                     : 41.667 FPS (1152 SPF)
Compression mode               : Lossy
Delay relative to video        : 120 ms
Stream size                    : 96.4 MiB (3%)
Language                       : English
Default                        : No
Forced                         : No

</pre>
</div>
<div class="bbCodeBlock bbCodeVfcHH HiddenContent">
<div class="attribution type">Hidden Content:</div>
<blockquote>You must either reply or click 'Like' to see the hidden information contained here.</blockquote>
</div><br>
<br>
Cutted with:<br>
<b>MKVToolNix GUI<br>
<br>
<img src="styles/default/xenforo/smilies/super_man-48.png" class="mceSmilie" alt=":super:" title="Super Man    :super:"><img src="styles/default/xenforo/smilies/super_man-48.png" class="mceSmilie" alt=":super:" title="Super Man    :super:"><img src="styles/default/xenforo/smilies/super_man-48.png" class="mceSmilie" alt=":super:" title="Super Man    :super:"></b>
<div class="messageTextEndMarker">&nbsp;</div>
</blockquote>
</article>]]></description>
                <author><![CDATA[Dream66]]></author>
                </item>

                </channel></rss>